<svg width="30" height="30" viewBox="0 0 30 30" fill="none" xmlns="http://www.w3.org/2000/svg">
<rect x="0.75" y="0.75" width="28.5" height="28.5" rx="14.25" fill="#141718"/>
<rect x="0.75" y="0.75" width="28.5" height="28.5" rx="14.25" stroke="white" stroke-width="1.5"/>
<path d="M11.2508 10.7226C11.0976 10.9524 11.1597 11.2628 11.3895 11.416C11.6192 11.5692 11.9297 11.5071 12.0829 11.2774L11.2508 10.7226ZM12.6043 9.59373L13.0204 9.87108V9.87108L12.6043 9.59373ZM17.396 9.59373L17.812 9.31638L17.396 9.59373ZM17.9175 11.2774C18.0706 11.5071 18.3811 11.5692 18.6108 11.416C18.8406 11.2628 18.9027 10.9524 18.7495 10.7226L17.9175 11.2774ZM16.5002 16C16.5002 16.8284 15.8286 17.5 15.0002 17.5V18.5C16.3809 18.5 17.5002 17.3807 17.5002 16H16.5002ZM15.0002 17.5C14.1717 17.5 13.5002 16.8284 13.5002 16H12.5002C12.5002 17.3807 13.6195 18.5 15.0002 18.5V17.5ZM13.5002 16C13.5002 15.1716 14.1717 14.5 15.0002 14.5V13.5C13.6195 13.5 12.5002 14.6193 12.5002 16H13.5002ZM15.0002 14.5C15.8286 14.5 16.5002 15.1716 16.5002 16H17.5002C17.5002 14.6193 16.3809 13.5 15.0002 13.5V14.5ZM12.0829 11.2774L13.0204 9.87108L12.1883 9.31638L11.2508 10.7226L12.0829 11.2774ZM13.7137 9.5H16.2866V8.5H13.7137V9.5ZM16.98 9.87108L17.9175 11.2774L18.7495 10.7226L17.812 9.31638L16.98 9.87108ZM16.2866 9.5C16.5652 9.5 16.8254 9.63925 16.98 9.87108L17.812 9.31638C17.472 8.80635 16.8996 8.5 16.2866 8.5V9.5ZM13.0204 9.87108C13.1749 9.63925 13.4351 9.5 13.7137 9.5V8.5C13.1008 8.5 12.5283 8.80635 12.1883 9.31638L13.0204 9.87108ZM11.0002 11.5H19.0002V10.5H11.0002V11.5ZM21.1668 13.6667V18.3333H22.1668V13.6667H21.1668ZM19.0002 20.5H11.0002V21.5H19.0002V20.5ZM8.8335 18.3333V13.6667H7.8335V18.3333H8.8335ZM11.0002 20.5C9.80355 20.5 8.8335 19.53 8.8335 18.3333H7.8335C7.8335 20.0822 9.25126 21.5 11.0002 21.5V20.5ZM21.1668 18.3333C21.1668 19.53 20.1968 20.5 19.0002 20.5V21.5C20.7491 21.5 22.1668 20.0822 22.1668 18.3333H21.1668ZM19.0002 11.5C20.1968 11.5 21.1668 12.47 21.1668 13.6667H22.1668C22.1668 11.9178 20.7491 10.5 19.0002 10.5V11.5ZM11.0002 10.5C9.25126 10.5 7.8335 11.9178 7.8335 13.6667H8.8335C8.8335 12.47 9.80355 11.5 11.0002 11.5V10.5Z" fill="#FEFEFE"/>
</svg>
