<svg width="20" height="20" viewBox="0 0 20 20" fill="none" xmlns="http://www.w3.org/2000/svg">
<path fill-rule="evenodd" clip-rule="evenodd" d="M10.4687 4.16664C10.4687 3.90776 10.2588 3.69789 9.99994 3.69789C9.74106 3.69789 9.53119 3.90776 9.53119 4.16664V9.53125H4.1665C3.90762 9.53125 3.69775 9.74112 3.69775 10C3.69775 10.2589 3.90762 10.4688 4.1665 10.4688H9.53119V15.8333C9.53119 16.0922 9.74106 16.3021 9.99994 16.3021C10.2588 16.3021 10.4687 16.0922 10.4687 15.8333V10.4688H15.8332C16.0921 10.4688 16.3019 10.2589 16.3019 10C16.3019 9.74112 16.0921 9.53125 15.8332 9.53125H10.4687V4.16664Z" fill="#121212"/>
</svg>
